<svg xmlns="http://www.w3.org/2000/svg" viewBox="0 0 2133.02 566.92"><title>Specific-Group</title><path d="M311.81,28.35c-156.55,0-283.45,126.91-283.46,283.46S155.26,595.26,311.81,595.26s283.46-126.9,283.47-283.45S468.36,28.35,311.81,28.35Zm0,549.33c-146.84,0-265.87-119-265.87-265.87S165,45.93,311.81,45.93,577.68,165,577.69,311.81,458.65,577.68,311.81,577.68Z" transform="translate(-28.35 -28.35)" fill="#356696"/><path d="M344.6,378.39a69.7,69.7,0,0,1-77.83-10.25,11.33,11.33,0,0,0-15,16.94,92.61,92.61,0,1,0,20.07-152,93.91,93.91,0,0,0-20.92,14.32,11.33,11.33,0,1,0,15.22,16.78A71.35,71.35,0,0,1,282,253.3,70,70,0,0,1,344.6,378.39Z" transform="translate(-28.35 -28.35)" fill="#356696"/><path d="M422.42,405.77a143.48,143.48,0,0,0,19.87-32.65,17.51,17.51,0,1,0-32.07-14.05,107.83,107.83,0,1,1-62.51-144.69,17.51,17.51,0,0,0,11.79-33,143.07,143.07,0,0,0-159.17,44.69c-49.53,61.23-40,151.35,21.21,200.88a143,143,0,0,0,200.88-21.2Z" transform="translate(-28.35 -28.35)" fill="#356696"/><path d="M311.82,107.72c-114.1,0-206.92,92.82-206.92,206.91a207.24,207.24,0,0,0,7.37,54.86,25.36,25.36,0,0,0,48.92-13.42,156.52,156.52,0,0,1-5.56-41.44c0-86.12,70.06-156.18,156.19-156.18S468,228.51,468,314.63A155.47,155.47,0,0,1,358.26,463.8a25.36,25.36,0,1,0,15.07,48.43c87-27,145.39-106.45,145.39-197.6C518.72,200.54,425.9,107.72,311.82,107.72Z" transform="translate(-28.35 -28.35)" fill="#356696"/><path d="M818.34,260.66c0-15.7-8.41-24.31-13.09-28.05A58.16,58.16,0,0,0,792,225.13a106.48,106.48,0,0,0-10.84-3.73c-4.86-1.5-9.91-3-14.77-4.31-3.74-.93-7.48-1.87-11-3-7.48-2.06-11.22-3.18-11.4-8.23,0-4.86,4.11-6.91,7.85-7.85a38,38,0,0,1,5.42-.37c5.43,0,12.34,1.31,15.52,6.17a12.16,12.16,0,0,1,1.87,6.35l38.52.19c-.18-4.3-.37-16.27-8.78-26.36a38.15,38.15,0,0,0-9.73-8.23c-14-8.6-30.67-8.6-35.71-8.6a78.91,78.91,0,0,0-15,1.3c-4.87.94-24.87,5.05-34.41,21.7a37.29,37.29,0,0,0-4.68,18.51c0,2.8.19,12.34,5.43,20,5.42,8.23,14.4,12.34,23.37,15.52,11.41,4.11,23.19,6.92,34.6,11,6.91,2.43,9.91,4.86,9.91,9,0,6.17-5.24,11-16.83,11-7.48,0-11.78-1.68-14.59-3.74-4.86-3.37-5.8-7.85-6.17-13.46H699.41c.19,1.87.19,3.74.38,5.61,1.86,15.52,9.53,23.93,14.39,28a46.83,46.83,0,0,0,12,7.66c9.54,4.3,23.38,6.55,33.85,6.55,20.38,0,44.69-6,54.23-26.56A43.3,43.3,0,0,0,818.34,260.66Z" transform="translate(-28.35 -28.35)" fill="#356696"/><path d="M935.4,254.87c0-22.07-8-34.41-15.15-41C913.34,207.18,904.73,204,895,204c-12.15,0-19.64,5.05-23.19,8.61a27.64,27.64,0,0,0-3.74,4.48V206.81H832.93v126.6h36.65V292.64a29.64,29.64,0,0,0,16.27,11.22,34,34,0,0,0,10.28,1.5,36.11,36.11,0,0,0,26.56-11.22C929.23,287.4,935.4,275.81,935.4,254.87Zm-36.65.18c0,6.74-.56,14.4-6,19.08a13.25,13.25,0,0,1-9,3.18A14.48,14.48,0,0,1,875,274.5c-4.3-3.18-6.54-8.23-6.54-18.88s2.43-15.9,6.54-19.27a13.32,13.32,0,0,1,8.42-2.8,14.28,14.28,0,0,1,8.79,2.62C899.31,241.78,898.75,253.75,898.75,255.05Z" transform="translate(-28.35 -28.35)" fill="#356696"/><path d="M1045.92,288.71a41,41,0,0,0,8.23-15h-34.41a16.5,16.5,0,0,1-2.81,3.56,16.32,16.32,0,0,1-12,4.3c-11.79,0-16.09-8-17.58-12.16a19,19,0,0,1-1.12-6.92H1056c0-1.12.18-2.24.18-3.36,0-19.08-7.29-31.79-12.15-37.77-5.8-6.92-18.14-17.21-40.58-17.4-23.19,0-35.72,11.6-41.51,18.89-10.1,12.9-10.85,27.3-10.85,32.91,0,21.51,11.41,33.85,17.95,38.9,13.84,10.66,30.48,10.66,35.72,10.66C1011.7,305.36,1031.71,305.17,1045.92,288.71ZM989.07,236c4.11-7.67,12-8.41,14.77-8.41,9.35,0,13.28,5.79,14.78,9.16a27.11,27.11,0,0,1,1.68,7.29h-34A26.83,26.83,0,0,1,989.07,236Z" transform="translate(-28.35 -28.35)" fill="#356696"/><path d="M1170.08,273a48.39,48.39,0,0,0,1.87-8.79L1136.8,264c-1.12,7.67-4.3,11-7.48,12.72a15,15,0,0,1-6.92,1.49c-17,.19-16.27-20.19-16.27-22.25,0-.94-.37-13.46,4.68-20a14.52,14.52,0,0,1,11.59-5.61c7.29,0,12.72,5.24,13.65,12.34h35.16a38.85,38.85,0,0,0-7.48-20.19c-13.28-18-35.53-18.52-41.7-18.52-22.82,0-34.6,10.1-40.77,17.58-11.22,13.28-11.59,27.68-11.59,33.85a50.47,50.47,0,0,0,1.49,13.65,48.22,48.22,0,0,0,33.1,34,62.35,62.35,0,0,0,17.39,2.25,58.8,58.8,0,0,0,16.46-2.06C1145.4,301.43,1163.54,294.51,1170.08,273Z" transform="translate(-28.35 -28.35)" fill="#356696"/><rect x="1162.12" y="178.46" width="36.65" height="95.74" fill="#356696"/><rect x="1162.12" y="142.19" width="36.65" height="25.43" fill="#356696"/><path d="M1311.64,206.81h-19.26v-4.68a8.81,8.81,0,0,1,1.31-4.86c1.12-1.12,2.8-1.87,6.17-2.05,4.11-.19,8.41,0,12.53.18l.19-25.24c-5.24-.19-10.48-.19-15.53-.19-10.84,0-23,.37-31.79,8-7.66,6.55-8.78,15-9,24.31v4.49H1243v22.63h13.28v73.11h36.84V229.44h18.51Z" transform="translate(-28.35 -28.35)" fill="#356696"/><rect x="1301.81" y="142.19" width="36.65" height="25.43" fill="#356696"/><rect x="1301.81" y="178.46" width="36.65" height="95.74" fill="#356696"/><path d="M1484.61,273a48.39,48.39,0,0,0,1.87-8.79l-35.15-.19c-1.12,7.67-4.3,11-7.48,12.72a15,15,0,0,1-6.92,1.49c-17,.19-16.27-20.19-16.27-22.25,0-.94-.37-13.46,4.68-20a14.52,14.52,0,0,1,11.59-5.61c7.29,0,12.72,5.24,13.65,12.34h35.16a38.85,38.85,0,0,0-7.48-20.19c-13.28-18-35.53-18.52-41.7-18.52-22.82,0-34.6,10.1-40.77,17.58-11.22,13.28-11.59,27.68-11.59,33.85a50.47,50.47,0,0,0,1.49,13.65,48.22,48.22,0,0,0,33.1,34,62.35,62.35,0,0,0,17.39,2.25,58.74,58.74,0,0,0,16.46-2.06C1459.93,301.43,1478.07,294.51,1484.61,273Z" transform="translate(-28.35 -28.35)" fill="#356696"/><rect x="1471.79" y="209.13" width="58.16" height="31.42" fill="#356696"/><path d="M1709.57,229.81h-54.23v28.61h17.21a17.08,17.08,0,0,1-3.55,7.48c-6.18,7.85-15.15,8-18.33,8a27.49,27.49,0,0,1-15.33-4.3,26.09,26.09,0,0,1-7.67-8.6c-4.86-9-4.68-22.07-4.68-24.12,0-19.08,6-28.61,14-32.92a23.74,23.74,0,0,1,11.22-2.8c6.73,0,13.46,2.43,17.39,8.23a29.19,29.19,0,0,1,3,7.29h38.9a52.3,52.3,0,0,0-15-31.79c-16.27-16.64-35.16-17.76-43.39-17.76A74,74,0,0,0,1632,169c-23.75,5.42-40.77,23.18-47.12,46.56a89.58,89.58,0,0,0-2.62,21.5c0,30.48,13.84,47.5,23.19,55.54,15,12.72,32.53,13.28,39.27,13.28,4.86,0,17,0,28.42-7.67a43.54,43.54,0,0,0,9.35-8.79l1.31,13.09h25.8Z" transform="translate(-28.35 -28.35)" fill="#356696"/><path d="M1804,205.5a24.53,24.53,0,0,0-8-1.12c-18.51,0-25.06,11-28.8,17.2l.19-14.77h-35v95.74h36.46V259.17c.19-1.12,0-6.73,1.87-11,3.37-8.79,12.35-12.91,21-12.91a36.37,36.37,0,0,1,12.34,2.43Z" transform="translate(-28.35 -28.35)" fill="#356696"/><path d="M1917.33,254.31c0-21.32-11.59-40.21-32.54-47.31a63.59,63.59,0,0,0-19.63-3c-20.57.38-39.27,9.92-47.5,29.55-1.68,3.74-4.11,10.85-4.11,21.32-.19,21.31,10.84,40.39,31.6,47.49a60.28,60.28,0,0,0,20,3,68,68,0,0,0,18.32-2.43,45.62,45.62,0,0,0,16.65-9.17C1916,280.3,1917.14,261,1917.33,254.31ZM1873.76,276a12.67,12.67,0,0,1-8.42,3,13.17,13.17,0,0,1-11.59-6.36c-3.93-6.36-3.55-16.64-3.55-17.95,0-7.29.56-17.2,7.48-21.88a13.57,13.57,0,0,1,7.66-2.06,12.27,12.27,0,0,1,9,3.37c4.3,3.74,6.17,9.16,6.17,20C1880.49,266.09,1878.43,272.26,1873.76,276Z" transform="translate(-28.35 -28.35)" fill="#356696"/><path d="M2035.14,302.55V206.81h-36.09v47.5c0,6.17.18,13.65-5.24,17.95a14,14,0,0,1-8.79,2.62c-6,0-8.6-2.06-10.28-4.31-3.37-4.3-2.62-9.34-2.62-14.39V206.81H1936V265.9c.19,6,.19,12.34,2.24,18.33,4.68,14.39,18,21.13,32.54,21.13,15.33,0,23.38-7.67,27.12-12.72l1.68-2.24v12.15Z" transform="translate(-28.35 -28.35)" fill="#356696"/><path d="M2095.54,292.64a29.64,29.64,0,0,0,16.27,11.22,34,34,0,0,0,10.28,1.5,36.11,36.11,0,0,0,26.56-11.22c6.54-6.74,12.71-18.33,12.71-39.27,0-22.07-8-34.41-15.14-41-6.92-6.74-15.52-9.92-25.25-9.92-12.15,0-19.63,5.05-23.19,8.61a27.64,27.64,0,0,0-3.74,4.48V206.81h-35.15v126.6h36.65Zm5.42-56.29a13.33,13.33,0,0,1,8.42-2.8,14.26,14.26,0,0,1,8.79,2.62c7.1,5.61,6.54,17.58,6.54,18.88,0,6.74-.56,14.4-6,19.08a13.25,13.25,0,0,1-9,3.18,14.5,14.5,0,0,1-8.79-2.81c-4.3-3.18-6.54-8.23-6.54-18.88S2096.85,239.72,2101,236.35Z" transform="translate(-28.35 -28.35)" fill="#356696"/><path d="M782.9,421.49a38.75,38.75,0,0,0-9.58-5.84,81.18,81.18,0,0,0-11.61-4l-28.26-7a43.46,43.46,0,0,1-6.74-2.11,20.53,20.53,0,0,1-5.6-3.41,15,15,0,0,1-3.81-5.12,16.78,16.78,0,0,1-1.38-7.06,22.19,22.19,0,0,1,2.43-10.88,20.25,20.25,0,0,1,6.42-7.07,27.46,27.46,0,0,1,9.25-3.89,48.7,48.7,0,0,1,11-1.22,40.08,40.08,0,0,1,11.77,1.71,30.39,30.39,0,0,1,9.91,5,26,26,0,0,1,7,8.28,26.7,26.7,0,0,1,3,11.61h11.05a32.8,32.8,0,0,0-12.83-26.95,40.37,40.37,0,0,0-13.64-6.82,58.13,58.13,0,0,0-16.4-2.28q-12.18,0-20,3.49a35.35,35.35,0,0,0-12.26,8.53,27.43,27.43,0,0,0-6.09,10.72,36.86,36.86,0,0,0-1.62,9.9,27.23,27.23,0,0,0,2.19,11.53,24.58,24.58,0,0,0,5.76,7.95,27.91,27.91,0,0,0,8.36,5.2,78,78,0,0,0,9.83,3.25l25.81,6.33a75.51,75.51,0,0,1,8.29,2.52,33.45,33.45,0,0,1,7.71,4,19.93,19.93,0,0,1,5.68,6,15.87,15.87,0,0,1,2.19,8.45,18.54,18.54,0,0,1-3.08,10.79,25.49,25.49,0,0,1-7.71,7.31,34.27,34.27,0,0,1-10,4.14,42.06,42.06,0,0,1-9.9,1.3,69,69,0,0,1-14.94-1.54,33.36,33.36,0,0,1-12.1-5.12,24.47,24.47,0,0,1-8-9.58q-2.93-6-2.76-14.93h-11q-.48,10.71,2.84,18.34a31.9,31.9,0,0,0,9.5,12.51,41,41,0,0,0,14.94,7.22,73.09,73.09,0,0,0,19,2.36A71.8,71.8,0,0,0,765,473.29a45,45,0,0,0,12.26-4.87,27.71,27.71,0,0,0,7.8-6.74,34.51,34.51,0,0,0,4.38-7.39,26,26,0,0,0,2-6.9,44.32,44.32,0,0,0,.41-5.2A28.53,28.53,0,0,0,789.39,430,24.67,24.67,0,0,0,782.9,421.49Z" transform="translate(-28.35 -28.35)" fill="#356696"/><path d="M881.86,399.81a37.07,37.07,0,0,0-12.42-9.57,42,42,0,0,0-33.94,0,37.07,37.07,0,0,0-12.42,9.57,41.58,41.58,0,0,0-7.63,14.05,57.73,57.73,0,0,0,0,34.26,41.58,41.58,0,0,0,7.63,14.05,36.26,36.26,0,0,0,12.42,9.5,43,43,0,0,0,33.94,0,36.26,36.26,0,0,0,12.42-9.5,41.58,41.58,0,0,0,7.63-14.05,57.73,57.73,0,0,0,0-34.26A41.58,41.58,0,0,0,881.86,399.81ZM880,444.06a36.54,36.54,0,0,1-5.52,11.45,28.09,28.09,0,0,1-9.17,8.12,28.26,28.26,0,0,1-25.66,0,28.19,28.19,0,0,1-9.17-8.12A36.54,36.54,0,0,1,825,444.06a46.61,46.61,0,0,1,0-26.14,36.64,36.64,0,0,1,5.52-11.45,28.31,28.31,0,0,1,9.17-8.12,28.26,28.26,0,0,1,25.66,0,28.2,28.2,0,0,1,9.17,8.12A36.64,36.64,0,0,1,880,417.92a46.61,46.61,0,0,1,0,26.14Z" transform="translate(-28.35 -28.35)" fill="#356696"/><path d="M942.91,357a25,25,0,0,0-10.15,1.78,14.94,14.94,0,0,0-6.25,5,19.34,19.34,0,0,0-3.08,7.79,56.55,56.55,0,0,0-.81,9.91v7.63H908.33v8.6h14.29v75.18h10.23V397.7h16.56v-8.6H932.85v-7.31q0-3.41.16-6.33a13.39,13.39,0,0,1,1.22-5.12,8,8,0,0,1,3.32-3.49,13.34,13.34,0,0,1,6.5-1.3,26.78,26.78,0,0,1,3.57.25q1.78.24,3.9.57V357.6c-1.62-.22-3.09-.38-4.39-.49S944.43,357,942.91,357Z" transform="translate(-28.35 -28.35)" fill="#356696"/><path d="M985.13,363.93H974.9V389.1H960.29v8.6H974.9V455q-.17,10.73,3.9,14.7t14.28,4c1.52,0,3-.05,4.55-.16s3-.16,4.55-.16v-8.61a78.25,78.25,0,0,1-8.77.49c-3.68-.21-6-1.27-6.9-3.16a18.38,18.38,0,0,1-1.38-7.88V397.7h17v-8.6h-17Z" transform="translate(-28.35 -28.35)" fill="#356696"/><polygon points="1072.06 432.52 1071.74 432.52 1051.28 360.75 1039.75 360.75 1019.29 432.52 1018.97 432.52 997.53 360.75 986.66 360.75 1013.61 444.54 1024.81 444.54 1045.27 374.07 1045.6 374.07 1066.22 444.54 1077.42 444.54 1104.38 360.75 1093.5 360.75 1072.06 432.52" fill="#356696"/><path d="M1217.32,458.11V413.62q0-8.44-2.76-13.72a21.54,21.54,0,0,0-7.15-8.2,26.56,26.56,0,0,0-9.9-4,59,59,0,0,0-11-1.06,51.16,51.16,0,0,0-13.32,1.63,30,30,0,0,0-10.47,5,24,24,0,0,0-7.06,8.77,34,34,0,0,0-3.09,12.66h10.23q.33-10.23,6.5-14.85t15.91-4.63a46.87,46.87,0,0,1,8.52.73,19.06,19.06,0,0,1,7,2.68,13.54,13.54,0,0,1,4.71,5.28,18.75,18.75,0,0,1,1.7,8.52,14.48,14.48,0,0,1-.89,5.52,7.94,7.94,0,0,1-2.52,3.33,9.82,9.82,0,0,1-4.06,1.7c-1.62.33-3.52.6-5.68.82q-8.28,1-16.32,2a58.65,58.65,0,0,0-14.45,3.65,24.5,24.5,0,0,0-10.31,7.55Q1149,442,1149,450.8a25.42,25.42,0,0,0,2.19,11,20.93,20.93,0,0,0,6,7.63,24.48,24.48,0,0,0,8.93,4.39,42.34,42.34,0,0,0,11,1.38,43.5,43.5,0,0,0,10.64-1.14,29.27,29.27,0,0,0,8-3.25,27.75,27.75,0,0,0,6.34-5.27,69.54,69.54,0,0,0,5.6-7.23h.32a39.82,39.82,0,0,0,.41,5.93,11.35,11.35,0,0,0,1.7,4.62,8.48,8.48,0,0,0,3.66,3,15.51,15.51,0,0,0,6.25,1.05,30.56,30.56,0,0,0,3.49-.16c.92-.11,2-.27,3.17-.49v-8.6a8,8,0,0,1-3.25.65Q1217.32,464.28,1217.32,458.11Zm-10.23-17.7a24.67,24.67,0,0,1-8.69,19.32,27.59,27.59,0,0,1-9.33,5.2,35.27,35.27,0,0,1-11.21,1.78,21.85,21.85,0,0,1-7-1.13,18.16,18.16,0,0,1-6-3.33,16.71,16.71,0,0,1-4.14-5.2,14.86,14.86,0,0,1-1.54-6.9q0-6.16,3.65-9.5a24.59,24.59,0,0,1,9.34-5.11,73,73,0,0,1,12.58-2.68q6.9-.9,13.4-2a38.87,38.87,0,0,0,4.87-1.14,5.84,5.84,0,0,0,3.74-2.6h.32Z" transform="translate(-28.35 -28.35)" fill="#356696"/><path d="M1269.36,393a32.15,32.15,0,0,0-12.1,15.75h-.32V389.1h-9.42v83.78h10.23V428.23A32.43,32.43,0,0,1,1260,416a28,28,0,0,1,16.24-15.91,31,31,0,0,1,12.67-1.87V388Q1277.56,387.48,1269.36,393Z" transform="translate(-28.35 -28.35)" fill="#356696"/><path d="M1367.92,401.36a34.32,34.32,0,0,0-11.61-10.64q-7.14-4.05-17.21-4.06a36.24,36.24,0,0,0-17.13,3.82,33.74,33.74,0,0,0-11.77,10.07,43.33,43.33,0,0,0-6.74,14.2,61,61,0,0,0-2.19,16.24,64.27,64.27,0,0,0,2.19,17,41.49,41.49,0,0,0,6.74,14.13,31.61,31.61,0,0,0,11.77,9.58,39.1,39.1,0,0,0,17.13,3.49q15.92,0,24.6-7.8t11.93-22.08H1365.4a30.71,30.71,0,0,1-8.77,15.59q-6.33,5.83-17.53,5.84a24,24,0,0,1-12.5-3.08,28.31,28.31,0,0,1-8.61-7.8,31.44,31.44,0,0,1-5-10.63,45.33,45.33,0,0,1-1.54-11.45H1376a66.5,66.5,0,0,0-1.63-17.29A43.83,43.83,0,0,0,1367.92,401.36Zm-56.42,23.79a47,47,0,0,1,2.67-11.13,33.49,33.49,0,0,1,5.44-9.58,26.18,26.18,0,0,1,8.28-6.65,24.08,24.08,0,0,1,11.21-2.52,23.69,23.69,0,0,1,11,2.52,26,26,0,0,1,8.28,6.65,30.88,30.88,0,0,1,5.28,9.5,37.17,37.17,0,0,1,2,11.21Z" transform="translate(-28.35 -28.35)" fill="#356696"/><path d="M1532.24,421.49a38.57,38.57,0,0,0-9.58-5.84,81.18,81.18,0,0,0-11.61-4l-28.25-7a43.13,43.13,0,0,1-6.74-2.11,20.38,20.38,0,0,1-5.6-3.41,14.93,14.93,0,0,1-3.82-5.12,16.78,16.78,0,0,1-1.38-7.06,22.08,22.08,0,0,1,2.44-10.88,20.23,20.23,0,0,1,6.41-7.07,27.51,27.51,0,0,1,9.26-3.89,48.64,48.64,0,0,1,11-1.22,40.13,40.13,0,0,1,11.77,1.71,30.44,30.44,0,0,1,9.9,5,26,26,0,0,1,7,8.28,27,27,0,0,1,3,11.61h11a32.8,32.8,0,0,0-12.83-26.95,40.19,40.19,0,0,0-13.64-6.82,58.08,58.08,0,0,0-16.4-2.28q-12.17,0-20,3.49a35.54,35.54,0,0,0-12.26,8.53,27.55,27.55,0,0,0-6.09,10.72,36.86,36.86,0,0,0-1.62,9.9,27.23,27.23,0,0,0,2.19,11.53,24.46,24.46,0,0,0,5.77,7.95,27.78,27.78,0,0,0,8.36,5.2,77.87,77.87,0,0,0,9.82,3.25l25.82,6.33a76,76,0,0,1,8.28,2.52,33.45,33.45,0,0,1,7.71,4,20,20,0,0,1,5.69,6,15.87,15.87,0,0,1,2.19,8.45,18.47,18.47,0,0,1-3.09,10.79,25.26,25.26,0,0,1-7.71,7.31,34.1,34.1,0,0,1-10,4.14,42.14,42.14,0,0,1-9.91,1.3,69.13,69.13,0,0,1-14.94-1.54,33.39,33.39,0,0,1-12.09-5.12,24.38,24.38,0,0,1-8-9.58q-2.93-6-2.76-14.93h-11q-.49,10.71,2.84,18.34a31.71,31.71,0,0,0,9.5,12.51,41,41,0,0,0,14.93,7.22,73.09,73.09,0,0,0,19,2.36,71.89,71.89,0,0,0,17.54-1.87,45.28,45.28,0,0,0,12.26-4.87,27.52,27.52,0,0,0,7.79-6.74,34.57,34.57,0,0,0,4.39-7.39,26.34,26.34,0,0,0,1.94-6.9,44.32,44.32,0,0,0,.41-5.2,28.68,28.68,0,0,0-2.35-12.17A24.82,24.82,0,0,0,1532.24,421.49Z" transform="translate(-28.35 -28.35)" fill="#356696"/><path d="M1631.21,399.81a37,37,0,0,0-12.43-9.57,42,42,0,0,0-33.93,0,36.88,36.88,0,0,0-12.42,9.57,41.4,41.4,0,0,0-7.63,14.05,57.73,57.73,0,0,0,0,34.26,41.4,41.4,0,0,0,7.63,14.05,36.07,36.07,0,0,0,12.42,9.5,43,43,0,0,0,33.93,0,36.2,36.2,0,0,0,12.43-9.5,41.75,41.75,0,0,0,7.63-14.05,57.73,57.73,0,0,0,0-34.26A41.75,41.75,0,0,0,1631.21,399.81Zm-1.87,44.25a37,37,0,0,1-5.52,11.45,28.23,28.23,0,0,1-9.18,8.12,28.24,28.24,0,0,1-25.65,0,28.23,28.23,0,0,1-9.18-8.12,37,37,0,0,1-5.52-11.45,46.85,46.85,0,0,1,0-26.14,37.09,37.09,0,0,1,5.52-11.45,28.34,28.34,0,0,1,9.18-8.12,28.24,28.24,0,0,1,25.65,0,28.34,28.34,0,0,1,9.18,8.12,37.09,37.09,0,0,1,5.52,11.45,46.61,46.61,0,0,1,0,26.14Z" transform="translate(-28.35 -28.35)" fill="#356696"/><rect x="1638.26" y="328.6" width="10.23" height="115.93" fill="#356696"/><path d="M1763.86,433.1a52.74,52.74,0,0,1-1.46,12.42,34.06,34.06,0,0,1-4.54,10.8,24.12,24.12,0,0,1-7.8,7.55,21.55,21.55,0,0,1-11.36,2.84q-12.18,0-17.13-5.84t-5.28-17.21V389.1h-10.23v54.39a50,50,0,0,0,1.62,13.32,25.21,25.21,0,0,0,5.12,9.9,22.5,22.5,0,0,0,9.09,6.25,37,37,0,0,0,13.56,2.2,33.53,33.53,0,0,0,17.13-4.47,29.07,29.07,0,0,0,11.77-12.91h.33v15.1h9.41V389.1h-10.23Z" transform="translate(-28.35 -28.35)" fill="#356696"/><path d="M1819.39,363.93h-10.23V389.1h-14.61v8.6h14.61V455q-.17,10.73,3.9,14.7t14.29,4c1.51,0,3-.05,4.55-.16s3-.16,4.54-.16v-8.61a78,78,0,0,1-8.77.49c-3.68-.21-6-1.27-6.9-3.16a18.38,18.38,0,0,1-1.38-7.88V397.7h17v-8.6h-17Z" transform="translate(-28.35 -28.35)" fill="#356696"/><rect x="1832.77" y="360.75" width="10.23" height="83.78" fill="#356696"/><rect x="1832.77" y="328.6" width="10.23" height="16.4" fill="#356696"/><path d="M1965.53,399.81a37.07,37.07,0,0,0-12.42-9.57,42,42,0,0,0-33.94,0,36.88,36.88,0,0,0-12.42,9.57,41.4,41.4,0,0,0-7.63,14.05,57.73,57.73,0,0,0,0,34.26,41.4,41.4,0,0,0,7.63,14.05,36.07,36.07,0,0,0,12.42,9.5,43,43,0,0,0,33.94,0,36.26,36.26,0,0,0,12.42-9.5,41.58,41.58,0,0,0,7.63-14.05,57.73,57.73,0,0,0,0-34.26A41.58,41.58,0,0,0,1965.53,399.81Zm-1.87,44.25a36.76,36.76,0,0,1-5.52,11.45,28.23,28.23,0,0,1-9.18,8.12,28.24,28.24,0,0,1-25.65,0,28.09,28.09,0,0,1-9.17-8.12,36.54,36.54,0,0,1-5.52-11.45,46.61,46.61,0,0,1,0-26.14,36.64,36.64,0,0,1,5.52-11.45,28.2,28.2,0,0,1,9.17-8.12,28.24,28.24,0,0,1,25.65,0,28.34,28.34,0,0,1,9.18,8.12,36.87,36.87,0,0,1,5.52,11.45,46.61,46.61,0,0,1,0,26.14Z" transform="translate(-28.35 -28.35)" fill="#356696"/><path d="M2062.14,395.35a23.19,23.19,0,0,0-9.5-6.41,41.17,41.17,0,0,0-14.69-2.28,30.55,30.55,0,0,0-16.4,4.63,24.57,24.57,0,0,0-10.4,12.26h-.32V389.1H2000.6v83.78h10.23V424a37,37,0,0,1,2-11.45,27.55,27.55,0,0,1,5.19-9.09,23.81,23.81,0,0,1,8.12-6,26.12,26.12,0,0,1,11-2.19,24.13,24.13,0,0,1,10.31,2,16.49,16.49,0,0,1,6.58,5.36,21.18,21.18,0,0,1,3.41,8,48.52,48.52,0,0,1,1,10v52.28h10.23V419a56.8,56.8,0,0,0-1.46-13.47A23.84,23.84,0,0,0,2062.14,395.35Z" transform="translate(-28.35 -28.35)" fill="#356696"/><path d="M2153.47,433.75a27.84,27.84,0,0,0-7.63-4.46,39.23,39.23,0,0,0-8.69-2.36l-13.64-3.08q-2.6-.64-5.68-1.71a27.22,27.22,0,0,1-5.68-2.68,15.1,15.1,0,0,1-4.31-4,9.58,9.58,0,0,1-1.7-5.76,12.24,12.24,0,0,1,1.79-6.82,13.89,13.89,0,0,1,4.7-4.47,21.56,21.56,0,0,1,6.42-2.43,33.45,33.45,0,0,1,6.9-.73,31.73,31.73,0,0,1,8.28,1.05,20.12,20.12,0,0,1,6.9,3.33,16.65,16.65,0,0,1,4.79,5.77,19.32,19.32,0,0,1,1.95,8.2h10.23a30.49,30.49,0,0,0-2.76-11.86,24.84,24.84,0,0,0-6.58-8.44,27,27,0,0,0-9.58-5,41.08,41.08,0,0,0-11.77-1.63,49.4,49.4,0,0,0-11.12,1.3,34.42,34.42,0,0,0-10.15,4.06,22.17,22.17,0,0,0-7.39,7.31,22.83,22.83,0,0,0-1.05,19.89,17.79,17.79,0,0,0,5,6.17,29.53,29.53,0,0,0,7.39,4.22,72.81,72.81,0,0,0,9.25,3l13.15,2.93c2.28.54,4.52,1.19,6.74,1.95a25.66,25.66,0,0,1,5.93,2.84,13.33,13.33,0,0,1,4.14,4.22,11.75,11.75,0,0,1,1.54,6.25,12.21,12.21,0,0,1-2.19,7.39,17.75,17.75,0,0,1-5.6,4.95,24.71,24.71,0,0,1-7.39,2.76,38.58,38.58,0,0,1-7.71.81q-10.23,0-17.13-5.27t-7.55-15.67H2093q1.29,15.42,10.47,22.4t23.95,7a56.28,56.28,0,0,0,11.85-1.3,33.31,33.31,0,0,0,10.8-4.31,25.25,25.25,0,0,0,7.88-7.79,21,21,0,0,0,3.08-11.61,20.48,20.48,0,0,0-2.11-9.58A21.91,21.91,0,0,0,2153.47,433.75Z" transform="translate(-28.35 -28.35)" fill="#356696"/></svg>