<svg baseProfile="full" xmlns="http://www.w3.org/2000/svg" xmlns:xlink="http://www.w3.org/1999/xlink" width="600" height="240"><defs><marker id="a" refX="2.52" refY="2.25" markerWidth="6" markerHeight="4.5" orient="auto"><path d="M2.52 2.25l-2.52 2.25 6-2.25-6-2.25z"/></marker><path id="d" d="M34 0m325 386c-41-3-47-33-47-46 0-26 18-46 46-46 26 0 46 17 46 47 0 68-76 107-153 107-125 0-217-108-217-232 0-128 99-227 215-227 134 0 166 120 166 130s-10 10-13 10c-9 0-11-4-13-10-29-93-94-105-131-105-53 0-141 43-141 204 0 163 82 205 135 205 9 0 72-1 107-37z"/><path id="e" d="M28 0m443 214c0 128-100 234-221 234-125 0-222-109-222-234 0-129 104-225 221-225 121 0 222 98 222 225zm0 0-221-200c-43 0-87 21-114 67-25 44-25 105-25 141 0 39 0 93 24 137 27 46 74 67 114 67 44 0 87-22 113-65s26-101 26-139c0-36 0-90-22-134-22-45-66-74-116-74z"/><path id="f" d="M33 0m175 194c22-4 104-20 104-92 0-51-35-91-113-91-84 0-120 57-139 142-3 13-4 17-14 17-13 0-13-7-13-25v-132c0-17 0-24 11-24 5 0 6 1 25 20 2 2 2 4 20 23 44-42 89-43 110-43 115 0 161 67 161 139 0 53-30 83-42 95-33 32-72 40-114 48-56 11-123 24-123 82 0 35 26 76 112 76 110 0 115-90 117-121 1-9 10-9 12-9 13 0 13 5 13 24v101c0 17 0 24-11 24-5 0-7 0-20-12-3-4-13-13-17-16-38 28-79 28-94 28-122 0-160-67-160-123 0-35 16-63 43-85 32-26 60-32 132-46z"/><path id="i" d="M33 0m144 442l-140-11v-31c65 0 74-6 74-55v-269c0-45-11-45-78-45v-31c32 1 86 3 110 3 35 0 70-2 104-3v31c-66 0-70 5-70 44zm0-367 4 541c0 32-25 53-53 53-31 0-53-27-53-53 0-27 22-53 53-53 28 0 53 21 53 53z"/><path id="j" d="M32 0m78 344v-268c0-45-11-45-78-45v-31c35 1 86 3 113 3 26 0 78-2 112-3v31c-67 0-78 0-78 45v184c0 104 71 160 135 160 63 0 74-54 74-111v-233c0-45-11-45-78-45v-31c35 1 86 3 113 3 26 0 78-2 112-3v31c-52 0-77 0-78 30v191c0 86 0 117-31 153-14 17-47 37-105 37-73 0-120-43-148-105v105l-141-11v-31c70 0 78-7 78-56z"/><path id="g" d="M99 0m232-240c0 3 0 5-17 22-125 126-157 315-157 468 0 174 38 348 161 473 13 12 13 14 13 17 0 7-4 10-10 10-10 0-100-68-159-195-51-110-63-221-63-305 0-78 11-199 66-312 60-123 146-188 156-188 6 0 10 3 10 10z"/><path id="h" d="M57 0m232 250c0 78-11 199-66 312-60 123-146 188-156 188-6 0-10-4-10-10 0-3 0-5 19-23 98-99 155-258 155-467 0-171-37-347-161-473-13-12-13-14-13-17 0-6 4-10 10-10 10 0 100 68 159 195 51 110 63 221 63 305z"/><path id="b" d="M29 0m305 302c6 26 29 118 99 118 5 0 29 0 50-13-28-5-48-30-48-54 0-16 11-35 38-35 22 0 54 18 54 58 0 52-59 66-93 66-58 0-93-53-105-76-25 66-79 76-108 76-104 0-161-129-161-154 0-10 10-10 12-10 8 0 11 2 13 11 34 106 100 131 134 131 19 0 54-9 54-67 0-31-17-98-54-238-16-62-51-104-95-104-6 0-29 0-50 13 25 5 47 26 47 54 0 27-22 35-37 35-30 0-55-26-55-58 0-46 50-66 94-66 66 0 102 70 105 76 12-37 48-76 108-76 103 0 160 129 160 154 0 10-9 10-12 10-9 0-11-4-13-11-33-107-101-131-133-131-39 0-55 32-55 66 0 22 6 44 17 88z"/><path id="c" d="M29 0m457 381c4 14 4 16 4 23 0 18-14 27-29 27-10 0-26-6-35-21-2-5-10-36-14-54-7-26-14-53-20-80l-45-180c-4-15-47-85-113-85-51 0-62 44-62 81 0 46 17 108 51 196 16 41 20 52 20 72 0 45-32 82-82 82-95 0-132-145-132-154 0-10 10-10 12-10 10 0 11 2 16 18 27 94 67 124 101 124 8 0 25 0 25-32 0-25-10-51-17-70-40-106-58-163-58-210 0-89 63-119 122-119 39 0 73 17 101 45-13-52-25-101-65-154-26-34-64-63-110-63-14 0-59 3-76 42 16 0 29 0 43 12 10 9 20 22 20 41 0 31-27 35-37 35-23 0-56-16-56-65 0-50 44-87 106-87 103 0 206 91 234 204z"/><path id="m" d="M27 0m238 373h113c-33-148-42-191-42-258 0-15 0-42 8-76 10-44 21-50 36-50 20 0 41 18 41 38 0 6 0 8-6 22-29 72-29 137-29 165 0 53 7 107 18 159h114c13 0 49 0 49 34 0 24-21 24-40 24h-335c-22 0-60 0-104-47-35-39-61-85-61-90 0-1 0-10 12-10 8 0 10 4 16 12 49 77 107 77 127 77h57c-32-121-86-242-128-333-8-15-8-17-8-24 0-19 16-27 29-27 30 0 38 28 50 65 14 46 14 48 27 98z"/><path id="s" d="M83 0m578 230c14 0 33 0 33 20s-19 20-33 20h-467.2c-14 0-33 0-33-20s19-20 33-20z"/><path id="r" d="M39 0m421 320c0 80-5 160-40 234-46 96-128 112-170 112-60 0-133-26-174-119-32-69-37-147-37-227 0-75 4-165 45-241 43-81 116-101 165-101 54 0 130 21 174 116 32 69 37 147 37 226zm0 0-211-320c-39 0-98 25-116 121-11 60-11 152-11 211 0 64 0 130 8 184 19 119 94 128 119 128 33 0 99-18 118-117 10-56 10-132 10-195 0-75 0-143-11-207-15-95-72-125-117-125z"/><path id="k" d="M89 0m205 640c0 24 0 26-23 26-62-64-150-64-182-64v-31c20 0 79 0 131 26v-518c0-36-3-48-93-48h-32v-31c35 3 122 3 162 3s127 0 162-3v31h-32c-90 0-93 11-93 48z"/><path id="n" d="M50 0m399 174h-25c-5-30-12-74-22-89-7-8-73-8-95-8h-180l106 103c156 138 216 192 216 292 0 114-90 194-212 194-113 0-187-92-187-181 0-56 50-56 53-56 17 0 52 12 52 53 0 26-18 52-53 52-8 0-10 0-13-1 23 65 77 102 135 102 91 0 134-81 134-163 0-80-50-159-105-221l-192-214c-11-11-11-13-11-37h371z"/><path id="o" d="M42 0m248 352c82 27 140 97 140 176 0 82-88 138-184 138-101 0-177-60-177-136 0-33 22-52 51-52 31 0 51 22 51 51 0 50-47 50-62 50 31 49 97 62 133 62 41 0 96-22 96-112 0-12-2-70-28-114-30-48-64-51-89-52-8-1-32-3-39-3-8-1-15-2-15-12 0-11 7-11 24-11h44c82 0 119-68 119-166 0-136-69-165-113-165-43 0-118 17-153 76 35-5 66 17 66 55 0 36-27 56-56 56-24 0-56-14-56-58 0-91 93-157 202-157 122 0 213 91 213 193 0 82-63 160-167 181z"/><path id="l" d="M28 0m0 165h266v-87c0-36-2-47-76-47h-21v-31c41 3 93 3 135 3s95 0 136-3v31h-21c-74 0-76 11-76 47v87h100v31h-100v455c0 20 0 26-16 26-9 0-12 0-20-12l-307-469zm0 31 272 0h-244l244 373z"/><path id="p" d="M50 0m399 201c0 119-82 219-190 219-48 0-91-16-127-51v195c20-6 53-13 85-13 123 0 193 91 193 104 0 6-3 11-10 11-1 0-3 0-8-3-20-9-69-29-136-29-40 0-86 7-133 28-8 3-10 3-12 3-10 0-10-8-10-24v-296c0-18 0-26 14-26 7 0 9 3 13 9 11 16 48 70 129 70 52 0 77-46 85-64 16-37 18-76 18-126 0-35 0-95-24-137-24-39-61-65-107-65-73 0-130 53-147 112 3-1 6-2 17-2 33 0 50 25 50 49s-17 49-50 49c-14 0-49-7-49-53 0-86 69-183 181-183 116 0 218 96 218 223z"/><path id="q" d="M56 0m420 609c9 12 9 14 9 35h-243c-122 0-124 13-128 32h-25l-33-206h25c3 16 12 79 25 91 7 6 85 6 98 6h207c-11-16-90-125-112-158-90-135-123-274-123-376 0-10 0-55 46-55s46 45 46 55v51c0 55 3 110 11 164 4 23 18 109 62 171z"/></defs><path fill="#fff" d="M0 0h600v240h-600z"/><g stroke="#000" opacity=".4" stroke-width=".5"><path d="M40.5 47.5h502.655m-502.655 40h502.655m-502.655 80h502.655m-502.655 40h502.655"/><path d="M103.332 27v201m62.832-201v201m62.832-201v201m62.832-201v201m62.832-201v201m62.832-201v201m62.832-201v201m62.832-201v201"/></g><g stroke="#000" stroke-linecap="square"><path d="M103.332 122.5v10m62.832-10v10m62.832-10v10m62.832-10v10m62.832-10v10m62.832-10v10m62.832-10v10m62.832-10v10"/><path d="M35.5 47.5h10m-10 40h10m-10 40h10m-10 40h10m-10 40h10"/></g><path stroke="#000" stroke-width="2" marker-end="url(#a)" d="M40.5 127.5h536.5"/><path stroke="#000" stroke-width="2" marker-end="url(#a)" d="M40.5 236v-217"/><use xlink:href="#b" x="-285.75" transform="matrix(.02 0 0 -.02 584.5 144.5)"/><use xlink:href="#c" x="-285.75" transform="matrix(.02 0 0 -.02 29.5 12.5)"/><g transform="matrix(.02 0 0 -.02 422.5 66.5)"><use xlink:href="#d"/><use xlink:href="#e" x="444.4"/><use xlink:href="#f" x="944.4"/><use xlink:href="#g" x="1338.8"/><use xlink:href="#b" x="1727.7"/><use xlink:href="#h" x="2255.5"/></g><g transform="matrix(.02 0 0 -.02 236.5 66.5)"><use xlink:href="#f"/><use xlink:href="#i" x="394.4"/><use xlink:href="#j" x="672.2"/><use xlink:href="#g" x="1227.8"/><use xlink:href="#b" x="1616.7"/><use xlink:href="#h" x="2144.5"/></g><g><g transform="matrix(.02 0 0 -.02 103.332 152.5)"><path d="M-500 280h400" stroke="#000" stroke-width="40" stroke-linecap="square"/><use xlink:href="#k" x="-673.3" transform="translate(0 400) scale(.693)"/><use xlink:href="#l" x="-673.3" transform="translate(0 -300) scale(.693)"/><use xlink:href="#m"/></g><g transform="matrix(.02 0 0 -.02 166.164 152.5)"><path d="M-500 280h400" stroke="#000" stroke-width="40" stroke-linecap="square"/><use xlink:href="#k" x="-673.3" transform="translate(0 400) scale(.693)"/><use xlink:href="#n" x="-673.3" transform="translate(0 -300) scale(.693)"/><use xlink:href="#m"/></g><g transform="matrix(.02 0 0 -.02 228.996 152.5)"><path d="M-500 280h400" stroke="#000" stroke-width="40" stroke-linecap="square"/><use xlink:href="#o" x="-673.3" transform="translate(0 400) scale(.693)"/><use xlink:href="#l" x="-673.3" transform="translate(0 -300) scale(.693)"/><use xlink:href="#m"/></g><use xlink:href="#m" x="-285" transform="matrix(.02 0 0 -.02 291.827 152.5)"/><g transform="matrix(.02 0 0 -.02 354.659 152.5)"><path d="M-500 280h400" stroke="#000" stroke-width="40" stroke-linecap="square"/><use xlink:href="#p" x="-673.3" transform="translate(0 400) scale(.693)"/><use xlink:href="#l" x="-673.3" transform="translate(0 -300) scale(.693)"/><use xlink:href="#m"/></g><g transform="matrix(.02 0 0 -.02 417.491 152.5)"><path d="M-500 280h400" stroke="#000" stroke-width="40" stroke-linecap="square"/><use xlink:href="#o" x="-673.3" transform="translate(0 400) scale(.693)"/><use xlink:href="#n" x="-673.3" transform="translate(0 -300) scale(.693)"/><use xlink:href="#m"/></g><g transform="matrix(.02 0 0 -.02 480.323 152.5)"><path d="M-500 280h400" stroke="#000" stroke-width="40" stroke-linecap="square"/><use xlink:href="#q" x="-673.3" transform="translate(0 400) scale(.693)"/><use xlink:href="#l" x="-673.3" transform="translate(0 -300) scale(.693)"/><use xlink:href="#m"/></g><g transform="matrix(.02 0 0 -.02 543.155 152.5)"><use xlink:href="#n" x="-500"/><use xlink:href="#m"/></g></g><g><use xlink:href="#k" x="-500" transform="matrix(.02 0 0 -.02 32.5 54.5)"/><g transform="matrix(.02 0 0 -.02 32.5 94.5)"><path d="M-500 280h400" stroke="#000" stroke-width="40" stroke-linecap="square"/><use xlink:href="#k" x="-673.3" transform="translate(0 400) scale(.693)"/><use xlink:href="#n" x="-673.3" transform="translate(0 -300) scale(.693)"/></g><use xlink:href="#r" x="-500" transform="matrix(.02 0 0 -.02 32.5 134.5)"/><g transform="matrix(.02 0 0 -.02 32.5 174.5)"><use xlink:href="#s" x="-1350"/><path d="M-500 280h400" stroke="#000" stroke-width="40" stroke-linecap="square"/><use xlink:href="#k" x="-673.3" transform="translate(0 400) scale(.693)"/><use xlink:href="#n" x="-673.3" transform="translate(0 -300) scale(.693)"/></g><g transform="matrix(.02 0 0 -.02 32.5 214.5)"><use xlink:href="#s" x="-1250"/><use xlink:href="#k" x="-500"/></g></g><path stroke="#6988BE" stroke-width="3.2" d="M40.5 47.5c12.316 0 24.368 2.844 36.453 8.163 13.772 6.061 27.174 15.152 40.482 26.067 16.445 13.488 32.58 29.622 48.728 45.771 16.148 16.148 32.283 32.283 48.728 45.771 13.308 10.915 26.71 20.006 40.482 26.067 12.085 5.318 24.137 8.163 36.453 8.163 12.314 0 24.364-2.843 36.448-8.16 13.776-6.061 27.181-15.155 40.492-26.073 16.444-13.487 32.577-29.62 48.724-45.767 16.148-16.148 32.283-32.283 48.728-45.77 13.308-10.915 26.71-20.006 40.482-26.067 12.085-5.318 24.137-8.163 36.453-8.163" fill="none"/><path stroke="#20AA97" stroke-width="3.2" d="M40.5 127.5c16.147-16.147 32.281-32.281 48.725-45.768 13.31-10.917 26.714-20.009 40.488-26.071 12.084-5.318 24.136-8.161 36.45-8.161 12.316 0 24.368 2.844 36.453 8.163 13.772 6.061 27.174 15.152 40.482 26.067 16.445 13.488 32.58 29.622 48.728 45.771 16.148 16.148 32.283 32.283 48.728 45.771 13.308 10.915 26.71 20.006 40.482 26.067 12.085 5.318 24.138 8.163 36.453 8.163 12.316 0 24.368-2.844 36.453-8.163 13.772-6.061 27.174-15.152 40.482-26.067 16.445-13.488 32.58-29.622 48.728-45.771" fill="none"/></svg>