<?xml version="1.0" encoding="utf-8"?>
<!-- Generator: Adobe Illustrator 17.0.0, SVG Export Plug-In . SVG Version: 6.00 Build 0)  -->
<!DOCTYPE svg PUBLIC "-//W3C//DTD SVG 1.1//EN" "http://www.w3.org/Graphics/SVG/1.1/DTD/svg11.dtd">
<svg version="1.1" id="Слой_1" xmlns="http://www.w3.org/2000/svg" xmlns:xlink="http://www.w3.org/1999/xlink" x="0px" y="0px"
	 width="50px" height="50px" viewBox="0 0 50 50" enable-background="new 0 0 50 50" xml:space="preserve">
<path fill="#00A7C9" d="M43.491,21C41.992,14,36,8.008,29,6.509V0h-8v6.509C14,8.008,8.008,14,6.509,21H0v8h6.509
	C8.008,36,14,41.992,21,43.491V50h8v-6.509C36,41.992,41.992,36,43.491,29H50v-8H43.491z M38.474,29C37.163,33,33,37.163,29,38.474
	V31h-8v7.474C17,37.163,12.837,33,11.526,29H19v-8h-7.474C12.837,17,17,12.836,21,11.526V19h8v-7.474C33,12.836,37.163,17,38.474,21
	H31v8H38.474z"/>
</svg>
