<svg xmlns="http://www.w3.org/2000/svg" width="1600" height="900" viewBox="0 0 1600 900"><path fill="#fff" d="M0 0h1600v900h-1600z"/><g><path d="M857.13 425.071c-4.753-.364-10.624.042-17.004 1.266.644.801 1.093 1.772 1.283 2.851.614 3.452-1.69 6.747-5.145 7.354-3.452.612-6.745-1.697-7.356-5.147-.125-.741-.125-1.475-.005-2.182-5.147 1.65-9.83 3.62-13.812 5.734l-3.375-3.707c3.739-3.345 12.281-7.968 18.295-9.695 11.221-3.221 22.007-1.574 27.119 3.526zm-31.709 16.732c3.582 1.84 8.669 2.98 14.318 2.98 2.848 0 5.557-.29 8-.816-2.219 1.979-6.026 3.277-10.339 3.277-5.739.003-10.579-2.308-11.979-5.441zm-50.621 0c-1.39 3.133-6.226 5.444-11.969 5.444-4.326 0-8.125-1.298-10.342-3.278 2.446.524 5.152.816 8.008.816 5.644.001 10.739-1.142 14.303-2.982zm-31.699-16.732c5.115-5.1 15.893-6.747 27.111-3.527 6.011 1.725 14.56 6.348 18.305 9.695l-3.375 3.707c-3.981-2.114-8.664-4.084-13.807-5.734.12.706.125 1.44-.012 2.182-.609 3.45-3.889 5.759-7.346 5.147-3.457-.607-5.764-3.902-5.145-7.354.185-1.076.632-2.047 1.273-2.851-6.38-1.225-12.251-1.632-17.004-1.265zm82.819 75.61c-3.008 5.402-10.804 9.483-20.357 10.409.909 14.705 15.187 32.915 40.409 26.42l2.204-.532c25.948-8.297 29.423-25.726 26.909-40.753 5.117-2.174 9.543-4.695 13.332-7.269 2.921 48.047-3.24 84.269-88.298 84.704-85.071-.434-91.224-36.657-88.303-84.704 3.787 2.574 8.22 5.095 13.332 7.269-2.511 15 .954 32.376 26.729 40.681.834.195 1.655.389 2.471.599 25.396 6.538 39.7-11.984 40.426-26.737-8.325-1.325-14.992-5.095-17.775-9.95 6.176 2.232 14.765 3.617 24.268 3.617 9.693 0 18.45-1.44 24.653-3.754zm-25.801-8.764s-29.667 14.713-64.028 5.06c-28.542-8.023-39.882-27.633-39.882-27.633s29.38 18.999 56.447 7.544c40.865-17.289 47.465 2.232 47.465 2.232s6.595-19.513 47.458-2.232c27.066 11.455 56.447-7.544 56.447-7.544s-11.34 19.61-39.884 27.633c-34.358 9.645-64.023-5.06-64.023-5.06zm68.663-15.165c-1.345-2.928-2.444-5.107-2.888-6.191-3.986-9.912 13.757-4.69 12.356-19.827-.307-3.325-.639-6.555-.989-9.675 4.788-.342 10.599-4.678 14.925-11.72 6.083-9.87 6.967-21.318 1.987-25.581-4.982-4.259-13.939.28-20.017 10.145l-.629 1.051c-5.232-28.634-12.86-45.126-22.671-54.687 3.4 7.311 5.297 15.499 5.297 24.133 0 7.047-1.263 13.794-3.58 20.015-5.289-12.371-13.512-23.457-23.929-32.603.035.671.055 1.348.055 2.027 0 4.531-.814 8.874-2.304 12.873-8.717-20.416-29.857-35.406-55.246-37.73-20.746 4.581-35.868 18.816-44.495 66.149l-.731-1.236c-6.076-9.865-15.025-14.406-20.007-10.145-4.977 4.264-4.099 15.711 1.984 25.581 4.366 7.112 10.244 11.455 15.06 11.73-.344 3.113-.676 6.343-.979 9.665-1.395 15.137 16.335 9.917 12.351 19.827-.437 1.088-1.548 3.253-2.883 6.183-5.998.052-12.199-.681-18.544-2.671.619-7.693 1.288-15.621 1.752-23.672l.055-.542c-8.622-10.185-15.494-23.554-17.865-34.567-3.59-16.697 5.507-29.315 22.893-17.226.896.624 1.775 1.286 2.663 1.994.574-2.529 1.166-4.957 1.77-7.284-2.506-16.517-14.64-27.021-14.423-27.481 6.428-13.569 35.491-23.325 50.81-23.18 1.78-.544 3.605-.983 5.469-1.34 9.526-7.948 21.682-12.721 34.932-12.721 13.534 0 25.913 4.96 35.518 13.207 1.076.252 2.142.534 3.185.854 15.304-.157 44.4 9.6 50.825 23.18.23.459-11.944 11.006-14.421 27.566.594 2.302 1.181 4.703 1.745 7.199.884-.709 1.765-1.37 2.656-1.994 17.384-12.089 26.482.527 22.903 17.226-2.376 11.013-9.241 24.383-17.87 34.567l.052.542c.469 8.055 1.136 15.981 1.752 23.674-6.337 1.986-12.53 2.735-18.524 2.685z"/><path fill="#0068C8" d="M500.667 403.667l.605 153.574-161.058.903-1.213-216.562 95.332-.566"/><path opacity=".2" d="M434 341.016v62.984h67"/><path fill="#0068C8" d="M434.333 341.016l14.667 47.984 51.7 15"/><path fill="none" d="M346.163 491.377h148.333v55.245h-148.333z"/><text transform="translate(372.683 535.665)"><tspan x="0" y="0" fill="#fff" font-family="'MyriadPro-BoldCond'" font-size="64" letter-spacing="3">P</tspan><tspan x="32.255" y="0" fill="#fff" font-family="'MyriadPro-BoldCond'" font-size="64" letter-spacing="6">SD</tspan></text><path opacity=".2" d="M364.7 414"/><linearGradient id="a" gradientUnits="userSpaceOnUse" x1="1188.682" y1="564.555" x2="1188.682" y2="347.958" gradientTransform="matrix(1 -.006 .006 1 -5.956 .806)"><stop offset="0" stop-color="#9EC73D"/><stop offset="1" stop-color="#9EC73D"/></linearGradient><path fill="url(#a)" d="M1265.667 404.667l.605 153.574-161.058.903-1.213-216.562 95.332-.566"/><path fill="none" d="M1110.97 493.377h148.333v55.245h-148.333z"/><text transform="translate(1118.737 537.665)" fill="#fff" font-family="'MyriadPro-BoldCond'" font-size="64" letter-spacing="3">HTML</text><path opacity=".2" d="M1199.333 342.016l-.333-.016v63h67"/><path fill="#9EC73D" d="M1199.333 342.016l14.667 47.984 51.7 15"/><linearGradient id="b" gradientUnits="userSpaceOnUse" x1="544.103" y1="454.591" x2="664.103" y2="454.591"><stop offset="0" stop-color="#fff"/><stop offset="1" stop-color="#0068C8"/></linearGradient><path fill="url(#b)" d="M644.103 472.591h-100v-36h100l20 18z"/><linearGradient id="c" gradientUnits="userSpaceOnUse" x1="941.103" y1="454.591" x2="1061.103" y2="454.591"><stop offset="0" stop-color="#fff"/><stop offset="1" stop-color="#9EC73D"/></linearGradient><path fill="url(#c)" d="M1041.103 472.591h-100v-36h100l20 18z"/></g></svg>