<svg enable-background="new 0 0 53 60" viewBox="0 0 53 60" xmlns="http://www.w3.org/2000/svg"><path d="m47.3 36.1 4.5-28.1h-50.6l4.3 28.2c3.8 1.5 11.9 2.8 21 2.8s17-1.3 20.8-2.9z" style="fill:none;stroke:#12100b;stroke-width:2.4736;stroke-linecap:round;stroke-linejoin:round;stroke-miterlimit:10"/><path d="m7.9 55c0 2.1 8.4 3.8 18.7 3.8s18.7-1.7 18.7-3.8c0-.1 0 .1 0 0l1.6-12.3c-4 1.4-11.6 2.4-20.3 2.4s-16.3-1-20.3-2.4z" style="fill:none;stroke:#12100b;stroke-width:2.4736;stroke-linecap:round;stroke-linejoin:round;stroke-miterlimit:10"/><path d="m51.8 6.3c0 2.8-11.3 5.1-25.3 5.1s-25.3-2.3-25.3-5.1 11.3-5.1 25.3-5.1 25.3 2.3 25.3 5.1" fill="#fff"/><ellipse cx="26.5" cy="6.3" rx="25.3" ry="5.1" style="fill:none;stroke:#12100b;stroke-width:2.474;stroke-linecap:round;stroke-linejoin:round;stroke-miterlimit:10"/><path d="m32.5 24.3c0 3.1-2.5 5.6-5.6 5.6s-5.6-2.5-5.6-5.6 2.5-5.6 5.6-5.6 5.6 2.5 5.6 5.6" fill="#fff"/><ellipse cx="26.9" cy="24.3" rx="5.6" ry="5.6" style="fill:none;stroke:#12100b;stroke-width:2.4736;stroke-linecap:round;stroke-linejoin:round;stroke-miterlimit:10"/></svg>